<svg height="512.00002pt" viewBox="0 0 512.00002 512.00002" width="512.00002pt" xmlns="http://www.w3.org/2000/svg"><path d="m511.972656 252.136719c2.097656 141.710937-114.148437 259.8125-255.878906 259.863281-79.714844.027344-150.917969-36.390625-197.890625-93.492188-.78125-.953124-1.203125-2.152343-1.203125-3.382812v-11.050781c0-10.535157-8.539062-19.074219-19.074219-19.074219-1.902343 0-3.671875-1.011719-4.613281-2.664062-21.085938-37.082032-33.183594-79.9375-33.3125-125.609376-.394531-142.105468 113.855469-256.7031245 255.957031-256.726562 140.113281-.0234375 253.949219 112.519531 256.015625 252.136719zm0 0" fill="#3691bb"/><path d="m512 256c0 141.386719-114.613281 256-256 256-79.269531 0-150.109375-36.039062-197.066406-92.613281-1.257813-1.515625-1.933594-3.433594-1.933594-5.402344v-11.765625c0-9.511719-7.707031-17.21875-17.21875-17.21875-3.089844 0-5.929688-1.683594-7.4375-4.382812-20.597656-36.882813-32.34375-79.375-32.34375-124.617188 0-2.007812.03125-4.003906.0742188-6h511.8515622c.042969 1.996094.074219 3.992188.074219 6zm0 0" fill="#a64b30"/><path d="m240 511.488281v-53.488281c0-11.046875 8.953125-20 20-20h176.015625c-46.246094 45.746094-109.828125 74-180.015625 74-5.375 0-10.707031-.1875-16-.511719zm0 0" fill="#fc5426"/><path d="m477 110v270c0 5.523438-4.476562 10-10 10h-422c-5.523438 0-10-4.476562-10-10v-270c0-5.523438 4.476562-10 10-10h422c5.523438 0 10 4.476562 10 10zm0 0" fill="#9bb9c3"/><path d="m477 110v240c0 5.523438-4.476562 10-10 10h-397c-5.523438 0-10-4.476562-10-10v-240c0-5.523438 4.476562-10 10-10h397c5.523438 0 10 4.476562 10 10zm0 0" fill="#b4d2d7"/><path d="m458.25 125v230c0 2.761719-2.238281 5-5 5h-394.5c-2.761719 0-5-2.238281-5-5v-230c0-2.761719 2.238281-5 5-5h394.5c2.761719 0 5 2.238281 5 5zm0 0" fill="#463b83"/><path d="m458.25 125v230c0 2.761719-2.238281 5-5 5h-378.25c-2.761719 0-5-2.238281-5-5v-230c0-2.761719 2.238281-5 5-5h378.25c2.761719 0 5 2.238281 5 5zm0 0" fill="#54469b"/><path d="m512 383.5v16.5c0 11.046875-8.953125 20-20 20h-432.5625c-10.714844-12.832031-20.203125-26.722656-28.273438-41.5h475.835938c2.761719 0 5 2.238281 5 5zm0 0" fill="#b4d2d7"/><path d="m512 383.5c0 11.046875-8.953125 20-20 20h-445.25c-5.65625-8.007812-10.863281-16.351562-15.585938-25h475.835938c2.761719 0 5 2.238281 5 5zm0 0" fill="#e1ebf0"/><path d="m174 313h-24c-5.523438 0-10-4.476562-10-10v-24c0-5.523438 4.476562-10 10-10h24c5.523438 0 10 4.476562 10 10v24c0 5.523438-4.476562 10-10 10zm0 0" fill="#fdcb6b"/><path d="m120 313h-24c-5.523438 0-10-4.476562-10-10v-24c0-5.523438 4.476562-10 10-10h24c5.523438 0 10 4.476562 10 10v24c0 5.523438-4.476562 10-10 10zm0 0" fill="#fd7d43"/><path d="m296.5 266h-80c-5.523438 0-10-4.476562-10-10v-80c0-5.523438 4.476562-10 10-10h80c5.523438 0 10 4.476562 10 10v80c0 5.523438-4.476562 10-10 10zm0 0" fill="#fdbf43"/><path d="m184 183v63c0 5.523438-4.476562 10-10 10h-63c-5.523438 0-10-4.476562-10-10v-63c0-5.523438 4.476562-10 10-10h63c5.523438 0 10 4.476562 10 10zm111.5 93h-24c-5.523438 0-10 4.476562-10 10v24c0 5.523438 4.476562 10 10 10h24c5.523438 0 10-4.476562 10-10v-24c0-5.523438-4.476562-10-10-10zm0 0" fill="#fd6c55"/><path d="m251.5 286v24c0 5.523438-4.476562 10-10 10h-24c-5.523438 0-10-4.476562-10-10v-24c0-5.523438 4.476562-10 10-10h24c5.523438 0 10 4.476562 10 10zm166.5-109.5h-24c-5.523438 0-10 4.476562-10 10v24c0 5.523438 4.476562 10 10 10h24c5.523438 0 10-4.476562 10-10v-24c0-5.523438-4.476562-10-10-10zm0 0" fill="#6caac9"/><path d="m364 220.5h-24c-5.523438 0-10-4.476562-10-10v-24c0-5.523438 4.476562-10 10-10h24c5.523438 0 10 4.476562 10 10v24c0 5.523438-4.476562 10-10 10zm0 0" fill="#01988c"/><path d="m394 309.5h-56c-5.523438 0-10-4.476562-10-10v-56c0-5.523438 4.476562-10 10-10h56c5.523438 0 10 4.476562 10 10v56c0 5.523438-4.476562 10-10 10zm0 0" fill="#0ed1b2"/><path d="m261 110c0 2.761719-2.238281 5-5 5s-5-2.238281-5-5 2.238281-5 5-5 5 2.238281 5 5zm-24.875-5c-2.761719 0-5 2.238281-5 5s2.238281 5 5 5 5-2.238281 5-5-2.238281-5-5-5zm39.75 0c-2.761719 0-5 2.238281-5 5s2.238281 5 5 5 5-2.238281 5-5-2.238281-5-5-5zm0 0" fill="#9bb9c3"/><path d="m271.5 216c0 8.285156-6.714844 15-15 15s-15-6.714844-15-15 6.714844-15 15-15 15 6.714844 15 15zm26.75 35.015625c0 4.796875-3.890625 8.6875-8.6875 8.6875-2.933594 0-5.523438-1.457031-7.097656-3.6875h-52.03125c-1.574219 2.226563-4.164063 3.6875-7.097656 3.6875-4.796876 0-8.6875-3.890625-8.6875-8.6875 0-2.933594 1.457031-5.523437 3.6875-7.097656v-55.835938c-2.226563-1.574219-3.6875-4.164062-3.6875-7.097656 0-4.796875 3.890624-8.6875 8.6875-8.6875 2.933593 0 5.523437 1.460937 7.097656 3.6875h52.03125c1.574218-2.226563 4.164062-3.6875 7.097656-3.6875 4.796875 0 8.6875 3.890625 8.6875 8.6875 0 2.9375-1.457031 5.523437-3.6875 7.097656v55.835938c2.230469 1.574219 3.6875 4.164062 3.6875 7.097656zm-67.816406-5h52.03125c.574218-.8125 1.285156-1.523437 2.097656-2.097656v-55.835938c-.816406-.574219-1.523438-1.285156-2.097656-2.097656h-52.03125c-.574219.8125-1.285156 1.523437-2.097656 2.097656v55.835938c.8125.574219 1.523437 1.285156 2.097656 2.097656zm-56.050782-5.800781c0 2.761718-2.238281 5-5 5h-3.484374c-.007813 0-.011719 0-.019532 0-.007812 0-.011718 0-.015625 0h-5.832031c-2.761719 0-5-2.238282-5-5 0-2.140625 1.347656-3.949219 3.230469-4.664063l-5.167969-11.375h-21.1875l-5.171875 11.375c1.886719.714844 3.234375 2.523438 3.234375 4.664063 0 2.761718-2.238281 5-5 5h-9.351562c-2.761719 0-5-2.238282-5-5 0-2.765625 2.238281-5 5-5h.285156l22.042968-48.496094c.8125-1.785156 2.589844-2.933594 4.550782-2.933594 1.964844 0 3.742187 1.148438 4.554687 2.933594l22.042969 48.496094h.285156c2.765625 0 5.003906 2.234375 5.003906 5zm-25.835937-26.039063-6.046875-13.304687-6.046875 13.304687zm0 0" fill="#fff2b4"/><path d="m374.660156 264.226562c1.855469 3.207032 1.417969 7.375-1.324218 10.121094l-22.527344 22.523438c-3.273438 3.273437-8.582032 3.273437-11.855469 0l-1.117187-1.113282c-3.273438-3.273437-3.273438-8.582031 0-11.859374l22.527343-22.527344c2.742188-2.742188 6.910157-3.175782 10.117188-1.324219-1.730469-3.457031-1.183594-7.753906 1.675781-10.609375 2.363281-2.363281 5.300781-4.070312 8.53125-4.960938l12.460938-3.425781c.308593-.082031.59375.203125.507812.507813l-3.425781 12.464844c-.886719 3.230468-2.59375 6.167968-4.957031 8.53125-2.855469 2.855468-7.152344 3.40625-10.613282 1.671874zm19.417969 23.867188-6.761719-11.199219c-.144531-.238281-.488281-.238281-.632812 0l-6.761719 11.199219c-1.96875 3.257812-1.460937 7.433594 1.230469 10.125 3.230468 3.226562 8.464844 3.226562 11.695312 0 2.6875-2.691406 3.199219-6.867188 1.230469-10.125zm0 0" fill="#e1ebf0"/><path d="m388.46875 475.101562c-9.148438 5.542969-18.671875 10.515626-28.519531 14.898438h-54.949219c-2.761719 0-5-2.238281-5-5 0-19.3125 15.65625-34.964844 34.964844-34.964844h19.96875c15.871094 0 29.265625 10.578125 33.535156 25.066406zm0 0" fill="#b4d2d7"/><path d="m388.46875 475.101562c-9.148438 5.542969-18.671875 10.515626-28.519531 14.898438h-35.050781c-2.761719 0-5-2.238281-5-5 0-19.3125 15.65625-34.964844 34.964843-34.964844h.070313c15.871094 0 29.265625 10.578125 33.535156 25.066406zm0 0" fill="#e1ebf0"/><path d="m349.949219 460h-10c-2.761719 0-5-2.238281-5-5v-5h20v5c0 2.761719-2.238281 5-5 5zm0 0" fill="#9bb9c3"/></svg>