<?xml version="1.0" encoding="iso-8859-1"?>
<!-- Generator: Adobe Illustrator 19.0.0, SVG Export Plug-In . SVG Version: 6.00 Build 0)  -->
<svg version="1.1" id="Capa_1" xmlns="http://www.w3.org/2000/svg" xmlns:xlink="http://www.w3.org/1999/xlink" x="0px" y="0px"
	 viewBox="0 0 512 512" style="enable-background:new 0 0 512 512;" xml:space="preserve">
<circle style="fill:#F3A225;" cx="256" cy="256" r="256"/>
<path style="fill:#515A71;" d="M348.682,462.206c0-141.007,0-282.336,0-412.411C348.682,22.338,326.345,0,298.888,0H111.95
	C84.493,0,62.155,22.338,62.155,49.794c0,29.045,0,275.557,0,373.418C109.099,477.585,178.529,512,256,512
	c25.672,0,50.453-3.796,73.834-10.827C341.307,492.042,348.682,477.973,348.682,462.206z"/>
<path style="fill:#41485D;" d="M116.655,49.794C116.655,22.338,138.993,0,166.45,0h-54.5C84.493,0,62.155,22.338,62.155,49.794
	c0,29.045,0,275.557,0,373.418c15.8,18.3,34.156,34.327,54.5,47.554C116.655,305.085,116.655,70.748,116.655,49.794z"/>
<g>
	<path style="fill:#616B84;" d="M236.29,35.622h-33.376c-4.437,0-8.034-3.596-8.034-8.034s3.597-8.034,8.034-8.034h33.376
		c4.437,0,8.034,3.596,8.034,8.034S240.727,35.622,236.29,35.622z"/>
	<path style="fill:#616B84;" d="M174.702,35.621c-4.405,0-8.034-3.566-8.034-8.034c0-5.057,4.674-8.899,9.598-7.873
		c3.606,0.675,6.47,3.939,6.47,7.873C182.736,31.994,179.155,35.621,174.702,35.621z"/>
</g>
<path style="fill:#57B5E9;" d="M298.888,27.588H275.59c-4.587,0-8.306,3.718-8.309,8.304v5.276c0,7.07-5.785,12.854-12.855,12.854
	l0,0h-98.014c-7.07,0-12.854-5.784-12.854-12.854v-5.276c-0.003-4.587-3.722-8.304-8.309-8.304H111.95
	c-12.264,0-22.206,9.942-22.206,22.206v400.853c15.386,13.155,32.348,24.517,50.568,33.764h158.576
	c12.264,0,22.206-9.941,22.206-22.206c0-2.853,0-399.544,0-412.411C321.094,37.53,311.152,27.588,298.888,27.588z"/>
<path style="fill:#43A0D8;" d="M116.655,49.794c0-7.977,1.896-15.515,5.245-22.206h-9.95c-12.264,0-22.206,9.942-22.206,22.206
	v400.848c8.933,7.642,17.666,14.08,26.911,20.092C116.655,305.055,116.655,70.747,116.655,49.794z"/>
<path style="fill:#F7F7F7;" d="M436.412,87.923c0-4.175-3.384-7.559-7.559-7.559l0,0h-215.39c-4.64,0-8.401,3.761-8.401,8.401
	v359.948c0,4.175,3.384,7.559,7.559,7.559h216.232c4.175,0,7.559-3.384,7.559-7.559V87.923z"/>
<g>
	<path style="fill:#DFE1E5;" d="M259.783,448.714V88.765c0-4.305,3.24-7.848,7.413-8.338v-0.063h-53.733
		c-4.64,0-8.401,3.761-8.401,8.401v359.948c0,4.175,3.384,7.559,7.559,7.559h54.721
		C263.167,456.273,259.783,452.889,259.783,448.714z"/>
	<path style="fill:#DFE1E5;" d="M403.482,193.341h-55.907h-53.677h-54.457c-2.812,0-5.092,2.28-5.092,5.092v142.006h172.774V196.982
		C407.123,194.971,405.493,193.341,403.482,193.341z"/>
</g>
<path style="fill:#D2D3D6;" d="M239.441,193.341c-2.812,0-5.092,2.28-5.092,5.092v142.006h25.433V193.341H239.441z"/>
<path style="fill:#F3A225;" d="M407.123,340.438v22.689c0,2.706-2.193,4.899-4.899,4.899H240.046c-3.146,0-5.697-2.55-5.697-5.697
	v-21.892h172.774V340.438z"/>
<path id="SVGCleanerId_0" style="fill:#E08610;" d="M234.349,340.438v21.892c0,3.146,2.55,5.697,5.697,5.697h19.737v-27.588
	L234.349,340.438L234.349,340.438z"/>
<path style="fill:#40C488;" d="M338.527,423.261h-35.581c-7.595,0-13.809-6.214-13.809-13.809l0,0
	c0-7.595,6.214-13.809,13.809-13.809h35.581c7.595,0,13.809,6.214,13.809,13.809l0,0
	C352.336,417.047,346.122,423.261,338.527,423.261z"/>
<path style="fill:#FEC63B;" d="M379.535,340.438v27.588h22.689c2.706,0,4.899-2.194,4.899-4.899v-22.689L379.535,340.438
	L379.535,340.438z"/>
<path style="fill:#40C488;" d="M428.853,80.364h-67.129c-4.873,19.487-16.386,36.334-31.983,48.028
	c43.492,15.081,77.265,11.257,106.67-4.252V87.923C436.412,83.748,433.027,80.364,428.853,80.364z"/>
<path style="fill:#FEC63B;" d="M218.632,121.767c15.465,14.757,36.404,23.823,59.47,23.823c19.376,0,37.246-6.406,51.639-17.198
	c-6.92-2.4-14.078-5.261-21.512-8.648C272.576,103.501,237.277,113.741,218.632,121.767z"/>
<path style="fill:#F3A225;" d="M218.632,121.767c11.248,10.733,25.399,18.433,41.15,21.847v-32.192
	C243.015,112.66,228.494,117.522,218.632,121.767z"/>
<path style="fill:#37B77A;" d="M361.724,80.364H213.462c-4.64,0-8.401,3.761-8.401,8.401v16.388
	c3.826,6.092,8.392,11.672,13.571,16.614c18.645-8.026,53.944-18.266,89.597-2.023c7.434,3.387,14.592,6.248,21.512,8.648
	C345.339,116.698,356.851,99.851,361.724,80.364z"/>
<path style="fill:#1DA862;" d="M205.061,105.154c3.826,6.092,8.392,11.672,13.571,16.614c9.861-4.245,24.383-9.107,41.15-10.345
	V88.765c0-4.305,3.24-7.848,7.413-8.338v-0.063h-53.733c-4.615,0-8.401,3.743-8.401,8.401V105.154z"/>
<g>
	<path style="fill:#F7F7F7;" d="M373.657,288.81h-80.706c-4.437,0-8.034-3.596-8.034-8.034c0-4.437,3.597-8.034,8.034-8.034h80.706
		c4.437,0,8.034,3.596,8.034,8.034C381.691,285.213,378.094,288.81,373.657,288.81z"/>
	<path style="fill:#F7F7F7;" d="M373.657,317.255h-80.706c-4.437,0-8.034-3.596-8.034-8.034s3.597-8.034,8.034-8.034h80.706
		c4.437,0,8.034,3.596,8.034,8.034S378.094,317.255,373.657,317.255z"/>
	<path style="fill:#F7F7F7;" d="M347.247,260.429h-52.821c-4.437,0-8.034-3.596-8.034-8.034c0-4.437,3.597-8.034,8.034-8.034h52.821
		c4.437,0,8.034,3.596,8.034,8.034C355.281,256.833,351.684,260.429,347.247,260.429z"/>
	<path style="fill:#F7F7F7;" d="M268.016,288.81h-0.199c-4.437,0-8.034-3.596-8.034-8.034c0-4.437,3.597-8.034,8.034-8.034h0.199
		c4.437,0,8.034,3.596,8.034,8.034C276.049,285.213,272.452,288.81,268.016,288.81z"/>
	<path style="fill:#F7F7F7;" d="M268.016,317.255h-0.199c-4.437,0-8.034-3.596-8.034-8.034s3.597-8.034,8.034-8.034h0.199
		c4.437,0,8.034,3.596,8.034,8.034S272.452,317.255,268.016,317.255z"/>
</g>
<path style="fill:#616B84;" d="M334.156,216.584L334.156,216.584c-12.784,7.381-29.282,2.96-36.662-9.824l0,0
	c-7.381-12.784-2.96-29.281,9.824-36.662l0,0c12.784-7.381,29.281-2.96,36.662,9.824l0,0
	C351.36,192.705,346.939,209.203,334.156,216.584z"/>
<path style="fill:#515A71;" d="M320.737,193.341L320.737,193.341c-4.94-8.556-4.586-18.773,0.016-26.81
	c-4.576-0.016-9.209,1.127-13.436,3.567l0,0c-12.784,7.381-17.204,23.879-9.824,36.662l0,0c7.381,12.784,23.879,17.204,36.662,9.824
	l0,0c4.227-2.441,7.533-5.882,9.807-9.852C334.702,206.699,325.677,201.897,320.737,193.341z"/>
<g>
	<path id="SVGCleanerId_0_1_" style="fill:#E08610;" d="M234.349,340.438v21.892c0,3.146,2.55,5.697,5.697,5.697h19.737v-27.588
		L234.349,340.438L234.349,340.438z"/>
</g>
<g>
</g>
<g>
</g>
<g>
</g>
<g>
</g>
<g>
</g>
<g>
</g>
<g>
</g>
<g>
</g>
<g>
</g>
<g>
</g>
<g>
</g>
<g>
</g>
<g>
</g>
<g>
</g>
<g>
</g>
</svg>
